<mxfile host="app.diagrams.net" modified="2024-01-10T23:53:25.862Z" agent="Mozilla/5.0 (Macintosh; Intel Mac OS X 10_15_7) AppleWebKit/537.36 (KHTML, like Gecko) Chrome/120.0.0.0 Safari/537.36" version="22.1.18" etag="F4gV6MSdN1XQztbx_U3J" type="github">
  <diagram name="第 1 页" id="4yJU4FR-QSDb8HQ45OhD">
    <mxGraphModel>
      <root>
        <mxCell id="0" />
        <mxCell id="1" parent="0" />
      </root>
    </mxGraphModel>
  </diagram>
</mxfile>
